<?xml version='1.0' encoding='utf-8'?>
<!DOCTYPE svg PUBLIC '-//W3C//DTD SVG 1.1//EN' 'http://www.w3.org/Graphics/SVG/1.1/DTD/svg11.dtd'>
<svg version="1.1" xmlns="http://www.w3.org/2000/svg" viewBox="0 0 512 512" xmlns:xlink="http://www.w3.org/1999/xlink" enable-background="new 0 0 512 512">
  <g>
    <path fill="none" stroke="#000000" stroke-linejoin="round" stroke-linecap="round" stroke-width="4" d="m256,304.7" stroke-miterlimit="10"/>
    <g>
      <path d="m169.1,291.2c3.6-3.6 3.6-9.4 0-13-3.6-3.6-9.4-3.6-13,0l-14.1,14c-3.9,3.9-10.2,3.9-14.1,0l-14.1-14c-3.6-3.6-9.4-3.6-13,0-3.6,3.6-3.6,9.4 0,13l14,13.9c3.9,3.9 3.9,10.3 0,14.2l-14,13.9c-3.6,3.6-3.6,9.4 0,13 3.6,3.6 9.4,3.6 13,0l14.1-14c3.9-3.9 10.2-3.9 14.1,0l14.1,14c3.6,3.6 9.4,3.6 13,0 3.6-3.6 3.6-9.4 0-13l-14-13.9c-3.9-3.9-3.9-10.3 0-14.2l14-13.9z"/>
      <path d="m290.3,291c3.6-3.6 3.6-9.4 0-13-3.6-3.6-9.4-3.6-13,0l-14.1,14c-3.9,3.9-10.2,3.9-14.1,0l-14.1-14c-3.6-3.6-9.4-3.6-13,0-3.6,3.6-3.6,9.4 0,13l14,13.9c3.9,3.9 3.9,10.3 0,14.2l-14,13.9c-3.6,3.6-3.6,9.4 0,13 3.6,3.6 9.4,3.6 13,0l14.1-14c3.9-3.9 10.2-3.9 14.1,0l14.1,14c3.6,3.6 9.4,3.6 13,0 3.6-3.6 3.6-9.4 0-13l-14-13.9c-3.9-3.9-3.9-10.3 0-14.2l14-13.9z"/>
      <path d="m411.5,291.2c3.6-3.6 3.6-9.4 0-13-3.6-3.6-9.4-3.6-13,0l-14.1,14c-3.9,3.9-10.2,3.9-14.1,0l-14.1-14c-3.6-3.6-9.4-3.6-13,0-3.6,3.6-3.6,9.4 0,13l14,13.9c3.9,3.9 3.9,10.3 0,14.2l-14,13.9c-3.6,3.6-3.6,9.4 0,13 3.6,3.6 9.4,3.6 13,0l14.1-14c3.9-3.9 10.2-3.9 14.1,0l14.1,14c3.6,3.6 9.4,3.6 13,0 3.6-3.6 3.6-9.4 0-13l-14-13.9c-3.9-3.9-3.9-10.3 0-14.2l14-13.9z"/>
      <path d="m434.7,120.3h-121.3c-14,0-25.5-11-25.5-24.6 0-36.1-29.7-65.4-66.3-65.4h-144.3c-36.6-0.1-66.3,29.2-66.3,65.3v320.7c0,36.1 29.7,65.4 66.3,65.4h357.4c36.6,0 66.3-29.4 66.3-65.4v-230.6c0-36.1-29.7-65.4-66.3-65.4zm25.5,296.1c0,13.6-11.4,24.6-25.5,24.6h-357.4c-14,0-25.5-11-25.5-24.6v-320.8c0-13.5 11.5-24.6 25.5-24.6h144.3c14,0 25.5,11 25.5,24.6 0,36.1 29.7,65.4 66.3,65.4h121.3c14,0 25.5,11 25.5,24.6v230.8z"/>
    </g>
  </g>
</svg>
